<svg xmlns="http://www.w3.org/2000/svg" viewBox="0 0 64 64" fill="none">
  <circle cx="32" cy="32" r="31" fill="#0e0e11"/>
  <circle cx="32" cy="32" r="31" fill="none" stroke="#2a2a30" stroke-width="1"/>
  <g stroke="#e5e5ea" stroke-width="2.2" stroke-linecap="round" stroke-linejoin="round" fill="none">
    <path d="M32 11 C27 8 21 9 19 13 C15 13 11 17 12 22 C7 24 6 30 10 33 C7 37 8 45 13 48 C14 52 20 56 32 55"/>
    <path d="M32 11 C37 8 43 9 45 13 C49 13 53 17 52 22 C57 24 58 30 54 33 C57 37 56 45 51 48 C50 52 44 56 32 55"/>
    <path d="M32 12 C30 20 34 28 32 34 C30 40 34 48 32 55" stroke-width="2.2"/>
    <path d="M24 17 C27 19 27 23 24 23"/>
    <path d="M16 26 C20 27 22 30 20 33"/>
    <path d="M18 38 C22 39 24 42 21 45"/>
    <path d="M23 48 C26 49 28 52 25 53"/>
    <path d="M40 17 C37 19 37 23 40 23"/>
    <path d="M48 26 C44 27 42 30 44 33"/>
    <path d="M46 38 C42 39 40 42 43 45"/>
    <path d="M41 48 C38 49 36 52 39 53"/>
  </g>
  <g fill="#e5e5ea">
    <circle cx="24" cy="17" r="1"/>
    <circle cx="16" cy="26" r="1"/>
    <circle cx="23" cy="48" r="1"/>
    <circle cx="40" cy="17" r="1"/>
    <circle cx="48" cy="26" r="1"/>
    <circle cx="41" cy="48" r="1"/>
    <circle cx="32" cy="33" r="1.4"/>
  </g>
</svg>
